<?xml version="1.0" encoding="UTF-8"?>
<!-- Created with Inkscape (http://www.inkscape.org/) -->
<svg width="336" height="268" version="1.1" viewBox="0 0 336 268" xml:space="preserve" xmlns="http://www.w3.org/2000/svg" xmlns:cc="http://creativecommons.org/ns#" xmlns:dc="http://purl.org/dc/elements/1.1/" xmlns:rdf="http://www.w3.org/1999/02/22-rdf-syntax-ns#"><metadata><rdf:RDF><cc:Work rdf:about=""><dc:format>image/svg+xml</dc:format><dc:type rdf:resource="http://purl.org/dc/dcmitype/StillImage"/><dc:title/></cc:Work></rdf:RDF></metadata><defs><clipPath id="clipPath2174"><path d="m55.12 59.46h91.47v123.91h-91.47z"/></clipPath><clipPath id="clipPath2206"><path d="m153.56 59.46h91.47v123.91h-91.47z"/></clipPath><clipPath><path d="m55.12 183.37h91.47v11.26h-91.47z"/></clipPath><clipPath id="clipPath2246"><path d="m55.12 183.37h91.47v11.26h-91.47z"/></clipPath><clipPath><path d="m55.12 183.37h91.47v11.26h-91.47z"/></clipPath><clipPath><path d="m55.12 183.37h91.47v11.26h-91.47z"/></clipPath><clipPath><path d="m153.56 183.37h91.47v11.26h-91.47z"/></clipPath><clipPath id="clipPath2286"><path d="m153.56 183.37h91.47v11.26h-91.47z"/></clipPath><clipPath><path d="m153.56 183.37h91.47v11.26h-91.47z"/></clipPath><clipPath><path d="m153.56 183.37h91.47v11.26h-91.47z"/></clipPath></defs><g transform="matrix(1.3333 0 0 -1.3333 0 268)"><g clip-path="url(#clipPath2174)"><g fill-opacity=".6" stroke-linecap="round" stroke-linejoin="round" stroke-miterlimit="10" stroke-opacity=".6" stroke-width=".71"><path d="m85.29 110.52c0 2.25 1.84 4.09 4.09 4.09s4.09-1.84 4.09-4.09-1.84-4.09-4.09-4.09-4.09 1.84-4.09 4.09" fill="#56b4e9" stroke="#56b4e9"/><path d="m109.55 81.91c0 2.25 1.84 4.09 4.09 4.09s4.09-1.84 4.09-4.09-1.84-4.09-4.09-4.09-4.09 1.84-4.09 4.09" fill="#e69f00" stroke="#e69f00"/><path d="m126.36 139.51c0 2.25 1.84 4.09 4.08 4.09 2.25 0 4.09-1.84 4.09-4.09s-1.84-4.09-4.09-4.09c-2.24 0-4.08 1.84-4.08 4.09" fill="#e69f00" stroke="#e69f00"/><path d="m81.67 110.52c0 2.25 1.84 4.09 4.09 4.09s4.09-1.84 4.09-4.09-1.84-4.09-4.09-4.09-4.09 1.84-4.09 4.09" fill="#56b4e9" stroke="#56b4e9"/><path d="m110.12 69.21c0 2.25 1.84 4.09 4.09 4.09s4.09-1.84 4.09-4.09c0-2.24-1.84-4.08-4.09-4.08s-4.09 1.84-4.09 4.08" fill="#e69f00" stroke="#e69f00"/><path d="m127.16 161.76c0 2.24 1.84 4.08 4.09 4.08s4.09-1.84 4.09-4.08c0-2.25-1.84-4.09-4.09-4.09s-4.09 1.84-4.09 4.09" fill="#e69f00" stroke="#e69f00"/><path d="m87.24 110.52c0 2.25 1.84 4.09 4.08 4.09 2.25 0 4.09-1.84 4.09-4.09s-1.84-4.09-4.09-4.09c-2.24 0-4.08 1.84-4.08 4.09" fill="#56b4e9" stroke="#56b4e9"/><path d="m105.23 81.74c0 2.25 1.84 4.09 4.09 4.09s4.09-1.84 4.09-4.09-1.84-4.09-4.09-4.09-4.09 1.84-4.09 4.09" fill="#e69f00" stroke="#e69f00"/><path d="m131.44 130.22c0 2.24 1.84 4.08 4.09 4.08s4.09-1.84 4.09-4.08c0-2.25-1.84-4.09-4.09-4.09s-4.09 1.84-4.09 4.09" fill="#e69f00" stroke="#e69f00"/></g><text transform="matrix(1,0,0,-1,59.01,65.09)" fill="#009e73" font-family="Helvetica" font-size="11px"><tspan x="0 6.1160002 9.1739998 15.29" y="0">n.d.</tspan></text>
</g><g clip-path="url(#clipPath2206)"><g fill-opacity=".6" stroke-linecap="round" stroke-linejoin="round" stroke-miterlimit="10" stroke-opacity=".6" stroke-width=".71"><path d="m184.92 110.52c0 2.25 1.84 4.09 4.08 4.09 2.25 0 4.09-1.84 4.09-4.09s-1.84-4.09-4.09-4.09c-2.24 0-4.08 1.84-4.08 4.09" fill="#56b4e9" stroke="#56b4e9"/><path d="m209.8 76.58c0 2.25 1.84 4.09 4.09 4.09s4.09-1.84 4.09-4.09-1.84-4.09-4.09-4.09-4.09 1.84-4.09 4.09" fill="#e69f00" stroke="#e69f00"/><path d="m227.12 131.39c0 2.25 1.84 4.09 4.09 4.09s4.09-1.84 4.09-4.09-1.84-4.09-4.09-4.09-4.09 1.84-4.09 4.09" fill="#e69f00" stroke="#e69f00"/><path d="m182.61 110.52c0 2.25 1.84 4.09 4.09 4.09s4.09-1.84 4.09-4.09-1.84-4.09-4.09-4.09-4.09 1.84-4.09 4.09" fill="#56b4e9" stroke="#56b4e9"/><path d="m202.71 75.91c0 2.25 1.84 4.09 4.09 4.09s4.09-1.84 4.09-4.09-1.84-4.09-4.09-4.09-4.09 1.84-4.09 4.09" fill="#e69f00" stroke="#e69f00"/><path d="m223.57 177.74c0 2.25 1.84 4.09 4.09 4.09s4.09-1.84 4.09-4.09-1.84-4.09-4.09-4.09-4.09 1.84-4.09 4.09" fill="#e69f00" stroke="#e69f00"/><path d="m181.7 110.52c0 2.25 1.84 4.09 4.09 4.09s4.09-1.84 4.09-4.09-1.84-4.09-4.09-4.09-4.09 1.84-4.09 4.09" fill="#56b4e9" stroke="#56b4e9"/><path d="m205.45 82.26c0 2.25 1.84 4.09 4.09 4.09s4.09-1.84 4.09-4.09-1.84-4.09-4.09-4.09-4.09 1.84-4.09 4.09" fill="#e69f00" stroke="#e69f00"/><path d="m226.6 153.28c0 2.25 1.84 4.09 4.09 4.09s4.09-1.84 4.09-4.09-1.84-4.09-4.09-4.09-4.09 1.84-4.09 4.09" fill="#e69f00" stroke="#e69f00"/></g><text transform="matrix(1,0,0,-1,157.45,65.09)" fill="#009e73" font-family="Helvetica" font-size="11px"><tspan x="0 6.1160002 9.1739998 15.29" y="0">n.d.</tspan></text>
</g><g clip-path="url(#clipPath2246)"><path d="m55.12 183.37h91.47v11.26h-91.47z" fill="#ccc"/><text transform="matrix(1,0,0,-1,83.19,184.69)" fill="#000000" font-family="Helvetica" font-size="12px"><tspan x="0 9.9960003 18.66 27.323999" y="0">mRNA</tspan></text>
</g><g clip-path="url(#clipPath2286)"><path d="m153.56 183.37h91.47v11.26h-91.47z" fill="#ccc"/><text transform="matrix(1,0,0,-1,183.63,184.69)" fill="#000000" font-family="Helvetica" font-size="12px"><tspan x="0 6 14.664 23.327999" y="0">vRNA</tspan></text>
</g><path d="m55.12 59.46h91.47" fill="none" stroke="#000" stroke-linecap="square" stroke-linejoin="round" stroke-miterlimit="10" stroke-width="1.07"/><g fill="none" stroke="#000" stroke-linejoin="round" stroke-miterlimit="10" stroke-width="1.07"><path d="m68.19 55.97v3.49"/><path d="m89.97 55.97v3.49"/><path d="m111.74 55.97v3.49"/><path d="m133.52 55.97v3.49"/></g><g fill="#000000" font-family="Helvetica" font-size="12px"><text transform="matrix(0,1,1,0,72.5,23.63)"><tspan x="0 8.0039997 16.007999 22.68" y="0">PB1a</tspan></text>
<text transform="matrix(0,1,1,0,94.27,6.97)"><tspan x="0 11.328 13.992 16.656 23.327999 26.664 32.664001 39.335999" y="0">Wildtype</tspan></text>
<text transform="matrix(0,1,1,0,116.05,22.31)"><tspan x="0 8.6639996 15.336 22.007999" y="0">D27N</tspan></text>
<text transform="matrix(0,1,1,0,137.83,17.63)"><tspan x="0 7.3319998 14.004 20.676001 27.348" y="0">T667A</tspan></text>
</g><path d="m153.56 59.46h91.47" fill="none" stroke="#000" stroke-linecap="square" stroke-linejoin="round" stroke-miterlimit="10" stroke-width="1.07"/><g fill="none" stroke="#000" stroke-linejoin="round" stroke-miterlimit="10" stroke-width="1.07"><path d="m166.63 55.97v3.49"/><path d="m188.4 55.97v3.49"/><path d="m210.18 55.97v3.49"/><path d="m231.96 55.97v3.49"/></g><g fill="#000000" font-family="Helvetica" font-size="12px"><text transform="matrix(0,1,1,0,170.94,23.63)"><tspan x="0 8.0039997 16.007999 22.68" y="0">PB1a</tspan></text>
<text transform="matrix(0,1,1,0,192.71,6.97)"><tspan x="0 11.328 13.992 16.656 23.327999 26.664 32.664001 39.335999" y="0">Wildtype</tspan></text>
<text transform="matrix(0,1,1,0,214.49,22.31)"><tspan x="0 8.6639996 15.336 22.007999" y="0">D27N</tspan></text>
<text transform="matrix(0,1,1,0,236.27,17.63)"><tspan x="0 7.3319998 14.004 20.676001 27.348" y="0">T667A</tspan></text>
</g><path d="m55.12 59.46v123.91" fill="none" stroke="#000" stroke-linecap="square" stroke-linejoin="round" stroke-miterlimit="10" stroke-width="1.07"/><g fill="#000000" font-family="Helvetica" font-size="12px"><text transform="matrix(1,0,0,-1,41.97,60.78)"><tspan x="0" y="0">0</tspan></text>
<text transform="matrix(1,0,0,-1,35.3,83.5)"><tspan x="0 6.6719999" y="0">50</tspan></text>
<text transform="matrix(1,0,0,-1,28.63,106.21)"><tspan x="0 6.6719999 13.344" y="0">100</tspan></text>
<text transform="matrix(1,0,0,-1,28.63,128.93)"><tspan x="0 6.6719999 13.344" y="0">150</tspan></text>
<text transform="matrix(1,0,0,-1,28.63,151.64)"><tspan x="0 6.6719999 13.344" y="0">200</tspan></text>
<text transform="matrix(1,0,0,-1,28.63,174.36)"><tspan x="0 6.6719999 13.344" y="0">250</tspan></text>
</g><g fill="none" stroke="#000" stroke-linejoin="round" stroke-miterlimit="10" stroke-width="1.07"><path d="m51.64 65.09h3.48"/><path d="m51.64 87.81h3.48"/><path d="m51.64 110.52h3.48"/><path d="m51.64 133.24h3.48"/><path d="m51.64 155.95h3.48"/><path d="m51.64 178.67h3.48"/></g><text transform="matrix(0,1,1,0,21.33,42.84)" fill="#000000" font-family="Helvetica" font-size="14px"><tspan x="0 10.108 20.216 29.554001 33.445999 36.554001 43.917999 50.568001 58.352001 61.459999 65.351997 70.014 82.459999 86.351997 94.136002 98.028 101.92 112.028 115.136 118.244 126.028 129.92 136.92 144.70399 152.48801" y="0">RNA level (% of wildtype)</tspan></text>
</g></svg>
